<svg xmlns="http://www.w3.org/2000/svg" xmlns:xlink="http://www.w3.org/1999/xlink" version="1" width="1103.032" height="229.961"><defs><linearGradient id="a"><stop offset="0" stop-color="#11266f"/><stop offset="1" stop-color="#4266ae"/></linearGradient><linearGradient id="b"><stop offset="0" stop-color="#e0162b"/><stop offset=".572" stop-color="#ff0108"/><stop offset=".754" stop-color="#ffb8bb"/><stop offset=".793" stop-color="#ffb0b3"/><stop offset=".851" stop-color="#ff010a"/><stop offset="1" stop-color="red"/></linearGradient><linearGradient x1="1415.861" y1="469.132" x2="1294.862" y2="536.903" id="c" xlink:href="#a" gradientUnits="userSpaceOnUse"/><linearGradient x1="1138.361" y1="524.518" x2="1415.878" y2="421.77" id="d" xlink:href="#b" gradientUnits="userSpaceOnUse"/></defs><g fill-rule="evenodd"><path d="M73.537 156.516c6.921-1.296 13.324-7.092 13.324-14.443 0-13.842-11.94-18.855-24.133-18.855H35.392c2.25 1.208 3.204 3.893 3.204 6.314v57.436c0 2.338-.954 5.107-3.204 6.232H65.06c11.592 0 28.026-3.982 28.026-19.721-.006-10.99-9.601-17.046-19.55-16.963zM53.04 129.532c2.338-.259 3.198-.259 4.494-.259 8.306 0 14.79 2.768 14.79 12.458 0 9.69-8.128 12.287-16.521 12.287h-2.763v-24.486zm9.342 57.607c-3.028 0-6.314-.171-9.342-.778v-25.864c2.42-.17 4.24-.17 6.226-.17 8.824 0 17.3 2.42 17.3 12.975 0 10.727-7.175 13.837-14.184 13.837zm136.059-63.921l-4.842 10.29c3.11-1.814 7.35-2.244 10.897-2.244h15.485v55.704c0 2.42-1.125 5.19-3.458 6.232h21.364c-2.244-1.037-3.457-3.806-3.457-6.232v-55.875c5.796 0 12.54.254 16.604.347 3.375 0 9.171-3.893 11.157-9.17-4.065.865-8.306.948-12.458.948H198.44zm87.794 0h-21.54c1.73.866 3.545 3.11 3.545 6.314v57.436c0 3.11-1.814 5.448-3.546 6.232h21.54c-1.82-.784-3.545-3.116-3.545-6.232v-57.436c0-3.198 1.731-5.448 3.546-6.314zM129.589 157.47c10.207 0 19.373-5.708 19.373-16.781 0-13.23-13.754-17.471-24.74-17.471H98.878c2.25 1.208 3.287 3.893 3.287 6.314v57.436c0 2.42-1.037 5.107-3.287 6.232H119.9c-2.25-1.037-3.287-3.894-3.287-6.232v-26.73c9.083.088 12.63 9.519 16.693 16.351 2.592 4.241 9.171 14.962 13.925 16.346 2.592.783 5.531.695 8.217.695 4.494 0 8.994-.524 13.318-1.82-16.08-.088-24.645-34.252-39.176-34.34zm-9.69-3.458c-1.125 0-2.162-.088-3.287-.17v-24.227c1.214-.17 2.333-.347 3.546-.347 7.699 0 13.407 3.11 13.407 11.845 0 8.576-5.796 12.9-13.666 12.9zm71.449-30.794h-21.535c1.726.866 3.546 3.11 3.546 6.314v57.436c0 3.11-1.815 5.448-3.546 6.232h21.535c-1.815-.784-3.546-3.116-3.546-6.232v-57.436c0-3.198 1.731-5.448 3.546-6.314zm224.807 0h-20.763c1.56.778 3.204 3.11 3.204 6.314v23.532c-3.805.347-8.995.606-14.879.606-6.055 0-11.25-.176-15.05-.606v-23.532c0-3.198 1.556-5.53 3.116-6.314H351.02c1.556.778 3.199 3.11 3.199 6.314v57.436c0 3.11-1.643 5.537-3.199 6.232h20.763c-1.56-.784-3.116-3.116-3.116-6.232v-26.035c3.806-.436 9.083-.607 15.05-.607 5.879 0 11.068.171 14.879.607v26.035c0 3.11-1.644 5.537-3.204 6.232h20.763c-1.561-.784-3.116-3.116-3.116-6.232v-57.436c0-3.198 1.56-5.536 3.116-6.314zm-105.011 13.235c0-5.796 5.277-8.305 10.378-8.305 6.403 0 13.324 4.153 16.087 9.954l-.778-13.064c-4.494-2.074-11.592-2.763-16.522-2.763-10.985 0-23.531 4.323-23.531 17.465 0 21.281 31.4 24.309 31.4 37.627 0 7.616-5.189 10.643-12.198 10.643-9.165 0-16.522-6.32-20.068-14.443-.436 2.857-.69 5.708-.69 8.565 0 2.42.172 4.841.519 7.18 5.708 3.893 14.879 5.189 21.623 5.189 12.888 0 25.688-6.06 25.688-20.675.01-20.156-31.908-23.536-31.908-37.373zm483.027-13.235c1.037.69 1.472 1.296 1.472 2.338 0 .778-.86 2.333-2.161 4.583 0 0-10.556 18.336-11.68 20.41l-13.319-21.105c-4.152-6.485-7.522-7.092-14.272-7.092-4.064 0-10.12 1.125-12.11 1.908 7.263 0 13.324 10.031 14.62 12.193l14.36 23.096v27.419c0 2.167-.954 5.107-3.028 6.232h20.581c-2.162-1.037-3.11-3.982-3.11-6.232v-27.33l16.61-29.069c1.555-2.768 3.982-5.967 6.921-7.351h-14.884zm-93.761 0h-13.671c.86.69 1.213 1.208 1.213 2.073 0 .695-.17 1.125-.518 2.25l-13.76 41.173-18.16-45.496-16.521 47.222-15.486-41.862c-.259-.783-.6-1.731-.6-2.42 0-1.473.6-2.25 1.472-2.94h-20.675c2.598 1.384 4.324 3.982 5.366 6.662l23.785 63.314h6.568l13.842-39.182 9.6 24.303c1.214 3.11 4.495 11.592 6.663 13.583.948.69 2.674 1.296 4.411 1.296l21.276-63.143c.871-2.592 2.686-5.537 5.195-6.833zm123.43 13.235c0-5.796 5.278-8.305 10.384-8.305 6.397 0 13.318 4.153 16.087 9.954l-.778-13.064c-4.5-2.074-11.597-2.763-16.522-2.763-10.985 0-23.531 4.323-23.531 17.465 0 21.281 31.4 24.309 31.4 37.627 0 7.616-5.189 10.643-12.198 10.643-9.171 0-16.522-6.32-20.074-14.443-.43 2.857-.689 5.708-.689 8.565 0 2.42.171 4.841.518 7.18 5.708 3.893 14.88 5.189 21.63 5.189 12.975 0 25.687-6.06 25.687-20.675.005-20.156-31.914-23.536-31.914-37.373zm-69.629 51.293l-23.53-64.528h-18.166c1.472.778 2.597 2.338 2.597 3.982 0 .347-.088.6-.17.86l-23.185 59.774c-.86 2.162-2.674 4.323-4.753 5.366h14.1c-.777-.348-1.643-.866-1.643-1.909 0-.43.26-1.213 1.125-3.286l6.75-17.123c4.147-.436 8.388-.524 12.535-.524 4.412 0 8.912 0 13.236.524.689 1.814 6.397 17.47 6.397 17.47.435 1.296.694 1.99.694 2.421 0 1.213-.606 1.726-1.295 2.421h20.068c-1.738-.948-3.811-2.851-4.76-5.448zm-34.516-23.526c-3.199 0-6.485-.088-9.69-.436l10.644-27.243 9.86 27.243c-3.551.436-7.18.436-10.814.436zm-211.4 23.526l-23.532-64.528h-18.16c1.473.778 2.592 2.338 2.592 3.982 0 .347-.088.6-.171.86l-23.184 59.774c-.866 2.162-2.68 4.323-4.759 5.366h14.101c-.777-.348-1.643-.866-1.643-1.909 0-.43.259-1.213 1.125-3.286 0 0 6.143-15.568 6.75-17.123 4.152-.436 8.388-.524 12.54-.524 4.412 0 8.912 0 13.235.524.69 1.814 6.403 17.47 6.403 17.47.518 1.296.69 1.99.69 2.421 0 1.213-.607 1.726-1.297 2.421h20.068c-1.731-.948-3.805-2.851-4.759-5.448zm-34.512-23.526c-3.204 0-6.49-.088-9.69-.436l10.639-27.243 9.86 27.243c-3.546.436-7.175.436-10.809.436zm64.357-41.002H516.6c1.731.866 3.55 3.11 3.55 6.314v57.436c0 3.11-1.819 5.448-3.55 6.232h21.54c-1.82-.784-3.546-3.116-3.546-6.232v-57.436c-.006-3.198 1.726-5.448 3.546-6.314zm43.941 34.252c7.61 0 17.642-5.708 17.642-16.781 0-13.23-13.754-17.471-24.74-17.471h-25.34c2.25 1.208 3.287 3.893 3.287 6.314v57.436c0 2.42-1.037 5.107-3.287 6.232h21.023c-2.25-1.037-3.293-3.894-3.293-6.232v-26.73c9.083 0 14.36 9.519 18.425 16.351 2.597 4.241 9.17 14.962 13.925 16.346 2.597.783 5.536.695 8.216.695 4.495 0 8.995-.524 13.324-1.82-14.967 0-24.05-33.474-39.182-34.34zm-11.421-3.458c-1.125 0-2.167-.088-3.292-.17v-24.227c1.213-.17 2.338-.347 3.551-.347 7.699 0 13.406 3.11 13.406 11.845 0 8.576-5.795 12.9-13.665 12.9z" fill="#00054c"/><path d="M1386.821 470.417c-12.27 11.62-38.09 21.949-50.36 26.465-17.427 6.458-25.17 9.044-34.859 12.27-10.969 3.227-32.928 10.33-32.928 10.33 45.188 13.555 77.47 17.42 77.47 17.42s14.846-4.494 38.736-17.42c12.91-6.453 18.722-10.33 23.239-14.846 1.941-1.29 6.452-5.812 7.097-11.62 0-.645.645-1.29.645-2.586v-1.285c-.645-.645-.645-1.29-.645-1.29s0-1.29-.645-2.587c0-.645-1.285-3.87-3.871-5.807-1.936-1.296-4.517-4.522-14.2-7.748-3.227-1.29-9.045-2.58-9.045-2.58l-.634 1.284z" fill="url(#c)" transform="translate(-348.238 -396.131)"/><path d="M1415.867 489.78s0-1.291-.645-1.936c0-1.29-.646-1.936-1.285-3.226-.645-.646-1.941-1.936-3.232-3.872-1.285-.65-2.58-1.935-3.871-3.226-6.463-3.877-14.2-5.812-21.303-7.103-10.97-1.29-23.885-1.29-25.17-1.29-3.876 0-30.341 0-36.8.645-29.696.65-66.49.65-76.174.65-98.763 0-142.025-1.94-189.788-11.619-40.671-7.748-63.27-15.49-63.27-15.49 36.154-1.29 245.955-10.33 284.045-10.975 25.175-.645 42.607-1.296 56.807 0 7.748 0 14.2.651 22.6 2.587 7.748 1.285 14.845 3.226 18.727 4.516 8.388 3.226 16.137 7.748 19.363 12.916 0 0 1.29.645 2.58 2.575 1.296 2.586 3.232 5.167 3.877 5.813 5.168 8.387 7.748 12.91 8.388 14.845 1.29 1.936 1.936 3.877 2.587 5.813 1.284 1.29 1.284 2.58 1.284 3.226.646 1.935.646 3.877 1.291 4.522v.628h-.011z" fill="url(#d)" transform="translate(-348.238 -396.131)"/></g></svg>