<svg xmlns="http://www.w3.org/2000/svg" xmlns:xlink="http://www.w3.org/1999/xlink" width="2500" height="685"><defs><linearGradient id="i" gradientUnits="userSpaceOnUse" x1="-84.54" y1="768.924" x2="-72.551" y2="768.924" gradientTransform="scale(5.7294 -5.7294) rotate(-43 -1006.683 117.766)"><stop offset="0" stop-color="#c02026"/><stop offset=".046" stop-color="#c52026"/><stop offset=".3" stop-color="#e21f26"/><stop offset=".392" stop-color="#ea705e"/><stop offset=".5" stop-color="#f4b4b3"/><stop offset=".618" stop-color="#ea705e"/><stop offset=".719" stop-color="#e21f26"/><stop offset=".957" stop-color="#c52026"/><stop offset="1" stop-color="#c02026"/></linearGradient><clipPath id="h"><use height="1052.362" width="744.094" xlink:href="#a" overflow="visible"/></clipPath><linearGradient id="k" gradientUnits="userSpaceOnUse" x1="-111.652" y1="745.404" x2="-99.779" y2="745.404" gradientTransform="scale(8.652 -8.652) rotate(-35 -1233.766 67.751)"><stop offset="0" stop-color="#fff"/><stop offset=".343" stop-color="#fff"/><stop offset=".55" stop-color="#fff"/><stop offset=".91" stop-color="#d4dbec"/><stop offset="1" stop-color="#d4dbec"/></linearGradient><clipPath id="j"><use height="1052.362" width="744.094" xlink:href="#b" overflow="visible"/></clipPath><linearGradient id="m" gradientUnits="userSpaceOnUse" x1="-24.272" y1="803.371" x2="-12.28" y2="803.371" gradientTransform="scale(3.4797 -3.4797) rotate(-43.001 -1011.508 103.02)"><stop offset="0" stop-color="#0a4e92"/><stop offset=".107" stop-color="#0a4e92"/><stop offset=".194" stop-color="#2d5a9b"/><stop offset=".379" stop-color="#657db4"/><stop offset=".5" stop-color="#889dcb"/><stop offset=".515" stop-color="#8399c8"/><stop offset=".665" stop-color="#5974ad"/><stop offset=".795" stop-color="#355f9e"/><stop offset=".898" stop-color="#185295"/><stop offset=".961" stop-color="#0a4e92"/><stop offset="1" stop-color="#0a4e92"/></linearGradient><clipPath id="l"><use height="1052.362" width="744.094" xlink:href="#c" overflow="visible"/></clipPath><linearGradient id="o" gradientUnits="userSpaceOnUse" x1="35.913" y1="792.903" x2="47.736" y2="792.903" gradientTransform="scale(2.8384 -2.8384) rotate(-32 -1363.197 -3.351)"><stop offset="0" stop-color="#c02026"/><stop offset=".077" stop-color="#c52026"/><stop offset=".5" stop-color="#e21f26"/><stop offset=".73" stop-color="#ea705e"/><stop offset="1" stop-color="#f4b4b3"/></linearGradient><clipPath id="n"><use height="1052.362" width="744.094" xlink:href="#d" overflow="visible"/></clipPath><linearGradient id="q" gradientUnits="userSpaceOnUse" x1="-71.568" y1="778.514" x2="-59.657" y2="778.514" gradientTransform="scale(5.5453 -5.5453) rotate(-38.1 -1135.277 81.869)"><stop offset="0" stop-color="#d5deef"/><stop offset=".073" stop-color="#d5deef"/><stop offset=".224" stop-color="#7687b8"/><stop offset=".371" stop-color="#0a4e92"/><stop offset=".429" stop-color="#155194"/><stop offset=".51" stop-color="#2d5a99"/><stop offset=".605" stop-color="#4a68a3"/><stop offset=".71" stop-color="#6c7fb2"/><stop offset=".824" stop-color="#95a3ca"/><stop offset=".943" stop-color="#d1daec"/><stop offset=".949" stop-color="#d5deef"/><stop offset="1" stop-color="#d5deef"/></linearGradient><clipPath id="p"><use height="1052.362" width="744.094" xlink:href="#e" overflow="visible"/></clipPath><linearGradient id="s" gradientUnits="userSpaceOnUse" x1="-73.518" y1="780.986" x2="-61.608" y2="780.986" gradientTransform="scale(5.6442 -5.6442) rotate(-38.1 -1134.66 82.192)"><stop offset="0" stop-color="#fff"/><stop offset=".174" stop-color="#fff"/><stop offset=".249" stop-color="#f6f7fb"/><stop offset=".347" stop-color="#e4e8f4"/><stop offset=".354" stop-color="#e3e7f3"/><stop offset=".405" stop-color="#e9ecf6"/><stop offset=".56" stop-color="#f8f8fc"/><stop offset=".7" stop-color="#fff"/><stop offset="1" stop-color="#fff"/></linearGradient><clipPath id="r"><use height="1052.362" width="744.094" xlink:href="#f" overflow="visible"/></clipPath><linearGradient id="u" gradientUnits="userSpaceOnUse" x1="-65.621" y1="777.356" x2="-53.709" y2="777.356" gradientTransform="scale(5.2569 -5.2569) rotate(-38.1 -1136.23 80.527)"><stop offset="0" stop-color="#f4b4b3"/><stop offset=".056" stop-color="#f4b4b3"/><stop offset=".096" stop-color="#f4b1af"/><stop offset=".14" stop-color="#f3a8a4"/><stop offset=".186" stop-color="#f09a91"/><stop offset=".232" stop-color="#ee8879"/><stop offset=".28" stop-color="#ea705e"/><stop offset=".328" stop-color="#e64f3e"/><stop offset=".371" stop-color="#e21f26"/><stop offset=".387" stop-color="#dd1f26"/><stop offset=".517" stop-color="#c02026"/><stop offset=".722" stop-color="#dd1f26"/><stop offset=".747" stop-color="#e21f26"/><stop offset=".773" stop-color="#e43d32"/><stop offset=".865" stop-color="#ec8070"/><stop offset=".93" stop-color="#f2a49f"/><stop offset=".961" stop-color="#f4b4b3"/><stop offset="1" stop-color="#f4b4b3"/></linearGradient><clipPath id="t"><use height="1052.362" width="744.094" xlink:href="#g" overflow="visible"/></clipPath></defs><path d="M854.713 620.523c41.865 7.011 122.075 17.792 219.958 19.991 97.82 2.63 213.19-3.547 321.611-20.356 108.827-16.612 210.91-44.08 282.946-74.225 73.015-28.552 113.84-63.605 113.68-63.85.47.245-41.95 40.737-119.267 75.63-76.56 36.049-184.512 70.572-297.947 92.948-113.617 22.948-232.757 33.383-329.5 34.098-96.964 1.12-172.14-8.092-198.658-12.149-90.87-14.408-157.215-39.473-197.578-63.521-41.074-24.334-54.321-46.32-50.227-50.702 4.34-5.013 24.849 5.338 65.879 18.522 41.362 13.473 103.857 30.51 189.103 43.614" fill="#ea7624"/><path fill="#0e4d92" d="M1495.038 313.2l-92.216-167.947h-59.949l-83.06 167.948h30.761l62.777-130.02h1.143l69.162 130.02zM305.967 239.999l98.269-1.365c-1.12 23.519-13.717 36.807-20.36 42.186-16.33 13.063-39.36 14.264-50.432 14.264-16.41 0-30.472-2.404-44.743-11.17-9.112-5.217-19.549-14.837-24.804-22.499l-4.588-7.132-31.898 18.851c9.233 11.186 24.05 22.171 39.36 30.101 23.809 11.984 45.679 15.019 72.056 15.019 28.192 0 72.137-4.178 103.914-28.512 22.034-16.608 32.106-39.861 32.106-60.383 0-20.276-10.068-43.835-32.106-60.446-27.478-20.907-67.468-28.511-103.16-28.511-22.912 0-44.212 2.427-65.797 10.78-17.94 6.297-31.962 15.303-46.373 27.921l31.898 18.402 7.968-8.44c6.094-7.212 16.9-14.183 26.643-18.016 12.922-6.012 26.579-7.685 40.604-7.685 28.393 0 44.579 9.52 53.812 18.485 6.013 5.768 14.065 16.752 15.9 33.77l-98.27-1.285V240zM1608.024 318.234c29.946 0 71.57-7.072 99.228-28.472 22.139-16.648 32.572-40.247 32.572-60.403 0-19.99-10.433-43.815-32.572-60.426-27.658-21.255-69.282-28.511-99.228-28.511-29.557 0-71.503 7.256-99.675 28.511-22.138 16.608-32.186 40.432-32.186 60.426 0 20.156 10.048 43.755 32.186 60.403 28.172 21.4 70.118 28.472 99.675 28.472m0-157.328c15.92 0 34.245 3.527 48.147 22.09 11.597 14.489 13.391 31.55 13.391 46.363 0 14.815-1.794 31.65-13.391 46.424-13.905 18.402-32.227 21.785-48.147 21.785-16.018 0-34.306-3.383-48.328-21.785-11.148-14.774-13.332-31.61-13.332-46.424s2.18-31.874 13.332-46.363c14.022-18.563 32.307-22.09 48.328-22.09M1186.637 187.623c5.524 1.835 10.578 4.178 14.412 7.642 7.482 6.116 13.616 16.266 13.616 32.71 0 16.651-6.134 26.841-13.616 33.055-3.834 3.463-8.888 5.807-14.412 7.601-6.258 1.915-13.187 3.22-20.793 3.22h-6.93V184.4h6.93c7.606.003 14.535 1.123 20.793 3.222m0 105.466c35.691-2.344 54.526-11.19 64.373-17.487 18.71-11.984 27.273-29.142 27.273-47.627 0-24.535-15.25-39.393-27.273-47.32-16.856-11.27-40.484-16.202-64.373-17.71-6.258-.41-12.76-.41-18.814-.41h-7.013v-23.09h-63.8v23.09h-6.623c-6.319 0-12.741 0-19 .41-24.053 1.508-47.757 6.437-64.412 17.71-12.067 7.927-27.317 22.785-27.317 47.32 0 18.485 8.643 35.643 27.317 47.627 9.803 6.297 28.557 15.143 64.413 17.487 5.809.08 11.986.49 18.999.49h6.624v24.678h63.799v-24.679h7.013c6.848-.003 13.026-.409 18.814-.49m-115.25-105.465c6.014-2.099 13.272-3.219 20.365-3.219h7.523v87.45h-7.523c-7.093 0-14.35-1.305-20.364-3.22-5.423-1.793-10.397-4.137-14.371-7.601-7.218-6.217-13.637-16.407-13.637-33.055 0-16.444 6.42-26.593 13.637-32.71 3.974-3.467 8.948-5.81 14.37-7.645M834.185 318.234c29.597 0 71.385-7.072 99.064-28.472 21.954-16.648 32.142-40.247 32.142-60.403 0-19.99-10.192-43.815-32.142-60.426-27.68-21.255-69.467-28.511-99.064-28.511-29.983 0-71.771 7.256-99.534 28.511-22.239 16.608-32.552 40.432-32.552 60.426 0 20.156 10.313 43.755 32.552 60.403 27.763 21.4 69.55 28.472 99.534 28.472m0-157.328c15.695 0 34.141 3.527 48.207 22.09 11.232 14.489 13.331 31.55 13.331 46.363 0 14.815-2.1 31.65-13.331 46.424-14.066 18.402-32.512 21.785-48.207 21.785-16.082 0-34.732-3.383-48.677-21.785-11.188-14.774-12.782-31.61-12.782-46.424s1.59-31.874 12.782-46.363c13.945-18.563 32.595-22.09 48.677-22.09M593.497 171.056c7.888.305 17.61 1.794 24.888 6.357 9.683 6.421 11.091 15.019 11.091 20.44 0 5.299-1.204 14.654-11.721 21.296-7.013 5.094-15.897 6.458-24.255 7.132H557.26v-55.594h29.718l6.52.369zm0 80.518h11.946c30.597 0 51.997-3.504 67.163-12.94 18.795-11.9 23.175-28.327 23.175-41.146 0-12.654-4.384-28.712-23.175-40.29-15.166-9.007-35.731-11.965-70.017-11.965H493.678V313.18h63.578v-61.606h36.24zM144.898 264.943l27.333 48.237h71.137l-96.394-167.947H87.618L.175 313.18h31.593l25.05-48.237h88.08zm-44.663-80.314l31.798 57.388H68.418l30.067-58.508h1.04l.71 1.12zM1861.922 170.687h68.796v-25.474h-200.841v25.474h68.347V313.22h63.698zM139.29 455.309l-1.999-5.952-102.568 5.952 20.79 10.78 83.777-10.78zm14.026 19.297l-2.529-2.019-4.34-5.137L95 477.845l21.89 7.685 36.426-10.924zm40.624-4.34c2.425-.428 6.054-1.833 9.112-4.177l-15.085-31.301 15.531-7.763-12.985-11.863-5.423 2.508-22.34 10.696 6.563 15.898 10.639-5.137 13.988 31.14zm25.294-65.277c5.769 7.336 9.867 16.061 12.228 26.288h-9.642c-.57-3.098-1.284-5.888-2.589-8.802-6.379-17.486-19.24-30.141-34.141-40.452l-5.464-3.749 5.464 2.12c13.66 5.807 25.666 13.734 34.144 24.595m0 94.665l2.794 5.542-2.794 1.63-7.542 3.547-8.643-18.321c-5.564 2.039-11.661 3.199-17.956 3.383-6.423.285-13.066-.55-19.12-2.669l-7.398 17.607-7.788-1.549-2.59-3.628 2.59-4.543 6.258-12.105-5.523-4.178 5.302-6.767c8.988 6.013 18.999 9.05 28.272 9.05 9.763.306 19.365-2.957 28.353-9.499l5.789 1.53 2.425 1.102-2.425 1.995-6.014 5.342 6.01 12.53zm122.648-47.26l27.049-18.2H222.025c0 6.562-.775 12.31-2.794 17.037-5.584 15.448-19.73 22.58-34.141 22.58-13.821-.59-28.048-8.151-34.306-22.214-2.22-5.013-3.525-10.475-3.525-17.403H.152l26.803 18.2 112.335-5.89c2.264 8.275 6.178 15.732 11.497 21.174 8.928 9.925 21.649 15.693 34.306 15.693 12.7.245 25.338-4.728 34.141-15.367 5.055-5.503 8.479-12.695 10.743-21.336l111.905 5.727zm-7.683 2.915l-20.61 10.35-83.123-10.35 2.1-5.952 101.633 5.952zm-59.765 22.72l-22.708 7.806-32.492-10.314-2.793-.915 2.793-2.854 3.773-4.074 51.427 10.351zm10.682-1.344l18.406-9.01-74.81-9.436-3.994 6.686 60.398 11.76zm-201.391 0l-18.14-8.252 75.05-9.99 4.26 6.482-61.17 11.76zM557.641 446.708h18.121c5.933 0 10.782-2.12 13.697-4.262 4.055-3.343 7.968-9.395 8.297-14.653.67-5.177-1.244-7.746-1.955-8.725-2.204-2.283-6.218-3.504-10.397-3.504H567.2l-9.559 31.144zm29.353-41.495c5.094 0 14.37.265 20.2 6.113 3.689 4.242 4.564 9.5 3.689 14.593-1.1 8.845-5.933 17.832-13.456 23.414-6.013 4.504-15.185 7.726-24.663 7.726h-18.366l-12.228 39.822h-12.026l28.048-91.668h28.802zM654.79 462.072c1.714-5.013 3.814-12.983 1.14-17.487-1.508-2.585-4.849-4.338-9.272-4.338-4.83 0-9.277 2.424-12.352 5.338-4.813 4.298-7.218 10.984-9.012 16.487l-1.895 5.626c-1.486 4.89-3.994 12.655-1 17.792 1 1.67 3.774 4.218 9.03 4.218 4.792 0 8.682-1.794 11.882-4.218 5.768-4.973 7.767-11.699 9.866-17.792l1.614-5.626zm11.538-21.966c2.079 3.608 2.75 8.6 1.998 15.203-1.284 9.881-6.422 25.37-17.365 34.48-6.604 5.422-14.452 8.336-21.954 8.336-11.618 0-16.001-6.422-17.162-8.336-2.954-4.809-2.428-10.556-2.163-14.694 1.325-10.599 6.503-25.762 17.53-34.993 6.423-5.338 14.616-8.131 22.115-8.131 8.888.003 14.656 3.772 17 8.135M721.504 491.703c-2.08 1.06-5.299 2.73-8.337 3.729-4.404 1.63-9.233 2.669-14.921 2.669-7.463 0-13.19-2.669-16.105-6.401-2.975-4.074-4.055-11.17-3.26-16.467 1.425-11.535 8.049-29.816 20.71-37.988 5.932-3.587 13.535-5.257 19.404-5.257 4.015 0 9.233 1.04 12.413 3.179 3.24 2.444 4.504 5.582 3.994 9.76l-2.425 7.461-10.641 1.1c1.63-3.772 2.713-7.685 1.08-9.989-.916-1.834-3.549-3.26-8.093-3.26-2.914 0-6.094.51-9.048 2.59-7.154 4.053-9.643 10.9-11.537 17.402l-2.59 8.436c-1.834 5.137-2.488 11.11-.694 14.898 1.244 2.14 4.035 5.338 11.172 5.338 3.649 0 6.197-.53 9.947-1.793l8.012-2.955.92 7.548zM785.182 491.703c-2.12 1.06-5.543 2.73-8.562 3.729-4.584 1.63-9.337 2.669-14.94 2.669-7.5 0-13.107-2.669-16.102-6.401-3.26-4.074-4.099-11.17-3.425-16.467 1.325-11.535 8.338-29.816 20.79-37.988 5.665-3.587 13.476-5.257 19.285-5.257 4.262 0 9.357 1.04 12.556 3.179 3.344 2.444 4.464 5.582 3.894 9.76l-2.344 7.461-10.682 1.1c1.754-3.772 2.753-7.685 1.12-9.989-.674-1.834-3.629-3.26-8.093-3.26-2.934 0-5.932.51-9.028 2.59-7.133 4.053-9.478 10.9-11.802 17.402l-2.384 8.436c-1.795 5.137-2.465 11.11-.51 14.898 1.304 2.14 3.81 5.338 11.151 5.338 3.545 0 6.174-.53 9.682-1.793 3.14-.715 5.4-1.57 7.99-2.955l1.404 7.548zM858.543 447.053l-44.21 49.828h-13.026l19.546-63.847h11.108l-15.246 49.784 44.092-49.784h12.902l-19.59 63.847h-10.946zM948.66 406.357l-.916 3.973c-1.244 3.668-3.039 7.357-8.643 10.354-4.219 1.955-8.049 2.874-12.067 2.874-2.87 0-7.499-.08-10.477-2.874-1.365-1.203-3.465-3.628-3.079-7.641l2.59-6.686h8.417l-.325 1.549.285 5.807 5.014 1.875 6.054-1.875 4.098-5.727.365-1.63h8.683zM930.7 496.88h-10.927l15.37-49.828-44.293 49.828h-12.862l19.53-63.85h10.862l-15.206 49.787 44.049-49.787h12.942L930.7 496.88zM999.761 491.703c-2.2 1.06-5.544 2.73-8.683 3.729-4.383 1.63-9.337 2.669-14.981 2.669-7.298 0-13.107-2.669-16.102-6.401-2.978-4.074-3.934-11.17-3.22-16.467 1.47-11.535 8.214-29.816 20.79-37.988 5.669-3.587 13.352-5.257 19.16-5.257 4.18 0 9.438 1.04 12.718 3.179 3.059 2.444 4.444 5.582 3.894 9.76l-2.63 7.461-10.272 1.1c1.51-3.772 2.549-7.685.839-9.989-.839-1.834-3.384-3.26-8.053-3.26-3.018 0-6.053.51-9.072 2.59-6.929 4.053-9.602 10.9-11.678 17.402l-2.589 8.436c-1.59 5.137-2.264 11.11-.51 14.898 1.345 2.14 4.055 5.338 11.232 5.338 3.548 0 6.094-.53 9.948-1.793l8.052-2.955 1.157 7.548zM1055.796 496.88l-2.794-20.195-2.545-7.132-5.853-1.875h-8.803l-8.847 29.203h-11.152l19.69-63.85h10.907l-7.768 25.413h7.768l7.888-2.2 4.974-6.257 4.544-7.031c2.71-4.074 4.79-8.172 10.068-10.006l5.158-.959 5.443.96-3.81 8.355-4.873.714-3.689 4.544-3.505 5.462c-1.57 2.585-2.629 5.053-5.912 7.256l-6.175 3.22-.265.549 5.524 3.584 2.489 6.422 3.22 23.824h-11.682zM1138.96 447.053l-44.17 49.828h-12.844l19.445-63.847h10.846l-15.226 49.784 44.293-49.784h12.983l-19.667 63.847h-11.07zM1203.309 459.282l.389-2.588c1.24-4.3 2.626-8.947.63-12.45-1.505-3.464-4.85-3.994-7.113-3.994-4.504 0-8.093 1.448-11.272 4.339-2.955 2.753-6.054 7.092-8.052 13.144l-.366 1.55h25.784zm-28.843 10.25c-1.244 4.259-2.465 10.352-.285 14.084 1.71 3.118 6.218 5.298 12.148 5.298 3.79 0 6.627-.63 9.722-1.754l7.929-3.015 1.26 7.562c-2.18 1.04-5.563 2.753-8.478 3.708-4.728 1.63-9.682 2.71-14.9 2.71-11.578 0-16.652-5.788-18.466-9.211-5.913-10.78 1.344-36.868 14.696-48.667 6.174-5.483 13.737-8.273 21.135-8.273 8.683 0 13.312 3.974 15.388 7.478 3.813 7.051 1.264 15.857-1.71 25.333l-.96 2.87h-37.18l-.299 1.878zM1327.855 467.169h-9.722c-6.259 0-10.437 1.264-13.697 3.178-3.673 2.67-5.769 6.807-6.342 10.475l1.284 5.848 7.358 2.834c3.87 0 6.42-.835 9.928-3.078l7.053-5.604 4.138-13.653zm-5.547 21.765h-.594c-2.304 2.24-5.054 4.543-8.562 6.498-3.91 1.998-7.053 2.669-11.597 2.669-3.73 0-8.314-.365-11.698-3.219-2.2-2.12-4.793-5.623-3.793-11.515.674-6.012 3.793-13.513 11.761-18.77 4.18-2.693 11.071-5.301 22.974-5.301h9.478l2.713-8.071c.49-1.875 1.794-6.298-1.429-8.802-.915-.875-3.075-2.203-7.683-2.203-2.284 0-6.259.285-9.518 2.203-2.838 1.385-4.2 3.588-5.588 7.477l-9.924-.55c.446-4.808 3.156-9.885 8.925-13.429 6.462-3.688 15.41-3.933 19.24-3.933 6.688 0 13.352 1.59 16.206 5.646 1.244 2.12 1.834 4.993 1.449 9.252-.45 3.098-1.285 5.522-2.425 8.68l-12.557 41.331h-9.97l2.592-7.963zM1372.9 460.177h13.982c2.12 0 5.748-.49 8.887-2.548 3.015-2.32 4.813-5.583 5.38-9.251l-2.244-5.301-5.933-1.51h-14.491l-5.581 18.61zm-8.68 28.227h14.653c4.343 0 7.217-1.305 9.377-2.67 3.223-2.138 5.014-5.847 5.688-10.065l-2.039-5.419-6.054-1.794h-15.49l-6.135 19.948zm5.97-55.35h27.582c4.812 0 9.518.59 12.818 4.852 1.428 1.834 2.223 4.748 1.713 8.802-.285 4.158-2.384 8.131-5.627 11.555-3.22 2.914-6.275 4.218-8.562 4.811v.285c3.464.879 5.342 3.038 5.892 4.3.916 1.877 1.878 4.077 1.45 7.54-.53 4.322-2.835 10.861-9.885 16.243-5.892 4.262-11.355 5.482-17.714 5.482h-27.008l19.341-63.87zM1474.818 447.053l-43.908 49.828h-12.861l19.448-63.847h10.987l-15.125 49.784 43.68-49.784h12.804l-19.445 63.847h-11.071zM1535.501 467.169h-9.887c-6.197 0-10.396 1.264-13.411 3.178-3.834 2.67-6.178 6.807-6.584 10.475l1.405 5.848 7.359 2.834c3.914 0 6.258-.835 9.97-3.078l6.93-5.604 4.218-13.653zm-5.423 21.765h-.59c-2.428 2.24-5.135 4.543-8.847 6.498-3.934 1.998-6.771 2.669-11.192 2.669-4.098 0-8.562-.365-11.906-3.219-2.32-2.12-4.625-5.623-3.79-11.515.755-6.012 3.79-13.513 11.598-18.77 4.464-2.693 11.148-5.301 23.134-5.301h9.398l2.629-8.071c.57-1.875 1.875-6.298-1.224-8.802-1.12-.875-2.955-2.203-7.64-2.203-2.445 0-6.379.285-9.602 2.203-2.955 1.385-4.343 3.588-5.789 7.477l-9.561-.55c.241-4.808 2.954-9.885 8.803-13.429 6.503-3.688 15.414-3.933 19.245-3.933 6.338 0 13.066 1.59 15.937 5.646 1.184 2.12 1.895 4.993 1.509 9.252-.49 3.098-1.244 5.522-2.344 8.68l-12.64 41.331h-9.72l2.592-7.963zM1600.541 496.88h-10.923l16.816-54.454h-17.57l-2.14 6.928a505.955 505.955 0 0 1-9.052 24.863c-2.935 6.605-6.4 14.167-13.901 19.26-4.22 2.914-9.478 4.339-13.74 4.993v-9.211c2.957-.59 7.012-2.304 9.846-4.262 4.507-3.219 7.056-8.312 8.763-12.983 2.673-6.297 7.892-20.38 10.152-28.347l3.585-10.636h37.61l-19.446 63.85zM1679.245 447.053l-43.928 49.828h-12.738l19.385-63.847h10.843l-15.106 49.784 43.828-49.784h12.861l-19.445 63.847h-10.866zM1707.577 496.88h-10.802l19.606-63.846h10.746l-7.848 25.799h27.29l7.891-25.799h10.679l-19.322 63.847h-10.681l8.562-28.877h-27.132zM1824.578 447.053l-43.945 49.828h-12.66l19.284-63.847h10.822l-15.122 49.784 43.68-49.784h12.982l-19.381 63.847h-10.843z"/><path d="M2229.782 143.788c-3.142 4.098-27.353 37.478-27.353 37.478s-10.193 13.898-11.621 15.897c-83.919 10.15-172.606 56.268-269.35 139.764 61.093-69.275 151.76-163.407 308.324-193.139m144.498-84.166c33.246-4.242 68.897-10.7 105.691-38.558-12.986 18.583-29.292 41.777-29.292 41.777-32.508 47.178-55.827 51.111-78.314 54.17l-47.044 3.463-40.745 2.73c-17.02 2.139-29.637 5.867-40.728 11.799 15.186-20.42 35.567-44.794 53.486-56.758 18.67-12.51 40.3-14.673 54.727-15.874l8.398-.915 13.82-1.834zm-.896-7.075l-13.961 1.958-7.828.754c-14.981 1.365-38.015 3.404-57.85 16.937-20.035 13.47-42.764 41.33-58.744 62.807-172.851 30.711-267.636 138.58-330.436 210.213l-39.219 48.178 6.644-1.975c117.94-114.533 222.712-175.874 321.286-187.45l1.244-.08 13.312-18.381 27.417-37.743c11.352-10.824 26.988-14.573 50.082-17.322l40.135-2.73 47.922-3.587c22.239-3.075 48.512-7.521 82.922-57.044l43.58-62.3-5.22-4.584c-39.711 41.448-80.946 47.215-121.286 52.349" fill="#010101"/><g transform="matrix(3.35379 0 0 3.3531 -211.71 -419.752)"><defs><path id="a" d="M620.617 241.211l-7.67 8.333c38.479-29.501 60.535-32.03 92.218-31.677 2.924.182 5.726.353 7.543-3.659l9.463-13.656c-44.222.467-64.267 11.844-101.554 40.659"/></defs><path clip-path="url(#h)" fill="url(#i)" d="M663.745 143.067l81.601 80.269-73.979 83.679-81.594-80.257z"/></g><g transform="matrix(3.35379 0 0 3.3531 -211.71 -419.752)"><defs><path id="b" d="M620.569 241.144c37.561-36.521 68.86-52.949 96.387-56.183 2.438-3.397 10.77-14.763 13.426-18.574l-.012-.012c-62.796 10.8-90.462 55.618-109.801 74.769"/></defs><path clip-path="url(#j)" fill="url(#k)" d="M656.701 111.943l106.981 79.029-69.426 104.592-106.987-79.023z"/></g><g transform="matrix(3.35379 0 0 3.3531 -211.71 -419.752)"><defs><path id="c" d="M622.544 239.011c-.802.778-3.379 3.726-4.09 4.406 22.007-17.115 40.472-34.935 86.358-41.536 2.273-2.698 8.904-11.961 12.089-16.89l-.012-.03c-41.869 6.072-69.213 30.662-94.345 54.05"/></defs><path clip-path="url(#l)" fill="url(#m)" d="M664.244 133.167l80.299 78.986-73.432 83.071-80.293-78.993z"/></g><g transform="matrix(3.35379 0 0 3.3531 -211.71 -419.752)"><defs><path id="d" d="M702.437 204.799c-1.216 3.452.662 2.03 6.096 5.439 4.692 2.924 3.671 4.005 3.264 5.543 4.267-6.442 11.852-15.741 11.852-15.741-1.829-.656-3.822-.948-5.816-.948-7.295 0-14.734 3.671-15.396 5.707"/></defs><path clip-path="url(#n)" fill="url(#o)" d="M707.523 188.456l23.242 15.328-13.408 22.646-23.241-15.328z"/></g><g transform="matrix(3.35379 0 0 3.3531 -211.71 -419.752)"><defs><path id="e" d="M744.811 162.09c-8.569 1.204-14.003 3.452-17.425 8.041l-11.979 16.92c2.613-2.431 10.49-3.665 19.042-3.877h2.255c1.215 0 2.54-.128 3.811-.128 12.191-.504 29.094-2.31 38.916-14.41l14.72-21.509 1.793-2.577c-12.789 17.765-42.035 16.246-51.133 17.54"/></defs><path clip-path="url(#p)" fill="url(#q)" d="M746.068 103.276l69.439 57.447-50.227 67.585-69.456-57.441z"/></g><g transform="matrix(3.35379 0 0 3.3531 -211.71 -419.752)"><defs><path id="f" d="M766.818 142.453c-3.763.511-12.198.438-19.255 5.215-7.05 4.637-15.511 15.972-19.691 21.85 3.865-4.376 8.982-5.659 16.58-6.516 7.53-.942 18.494-.723 26.183-1.89 7.5-.991 14.404-2.613 24.014-16.562l13.043-18.567c-13.543 14.148-28.262 14.744-40.874 16.47"/></defs><path clip-path="url(#r)" fill="url(#s)" d="M758.267 85.091l69.45 57.477-50.414 67.828-69.457-57.453z"/></g><g transform="matrix(3.35379 0 0 3.3531 -211.71 -419.752)"><defs><path id="g" d="M751.879 180.938c-9.208 1.343-19.704 1.708-22.73 1.933-5.124.201-12.028 1.921-13.918 4.352-5.738 7.622-11.299 14.66-12.794 17.577 3.556-3.458 15.127-3.057 29.24-3.713 14.112-.681 28.389-7.142 39.682-20.677l8.503-12.459c-5.726 7.772-15.803 11.212-27.983 12.987"/></defs><path clip-path="url(#t)" fill="url(#u)" d="M731.92 128.286l64.904 53.691-46.428 62.485-64.922-53.697z"/></g><path fill="#0e4d92" d="M1898.898 447.053l-44.029 49.828h-12.657l19.28-63.847h11.028l-15.226 49.784 43.824-49.784h12.825l-19.47 63.847h-10.926z"/></svg>